<mxfile host="app.diagrams.net" agent="Mozilla/5.0 (Windows NT 10.0; Win64; x64) AppleWebKit/537.36 (KHTML, like Gecko) Chrome/140.0.0.0 Safari/537.36" version="28.2.2">
  <diagram id="eAaIq2K1u5uEbJARdTMI" name="Trang-1">
    <mxGraphModel dx="1042" dy="1739" grid="1" gridSize="10" guides="1" tooltips="1" connect="1" arrows="1" fold="1" page="1" pageScale="1" pageWidth="827" pageHeight="1169" math="0" shadow="0">
      <root>
        <mxCell id="0" />
        <mxCell id="1" parent="0" />
        <mxCell id="v8sRkHZ2H84feDXE_ec4-1" value="" style="edgeStyle=orthogonalEdgeStyle;rounded=0;orthogonalLoop=1;jettySize=auto;html=1;" edge="1" parent="1" source="v8sRkHZ2H84feDXE_ec4-3" target="v8sRkHZ2H84feDXE_ec4-20">
          <mxGeometry relative="1" as="geometry">
            <Array as="points">
              <mxPoint x="160" y="5" />
              <mxPoint x="160" y="-105" />
            </Array>
          </mxGeometry>
        </mxCell>
        <mxCell id="v8sRkHZ2H84feDXE_ec4-2" value="" style="edgeStyle=orthogonalEdgeStyle;rounded=0;orthogonalLoop=1;jettySize=auto;html=1;" edge="1" parent="1" source="v8sRkHZ2H84feDXE_ec4-3" target="v8sRkHZ2H84feDXE_ec4-8">
          <mxGeometry relative="1" as="geometry">
            <Array as="points">
              <mxPoint x="160" y="5" />
              <mxPoint x="160" y="105" />
            </Array>
          </mxGeometry>
        </mxCell>
        <mxCell id="v8sRkHZ2H84feDXE_ec4-3" value="Access Control" style="rounded=1;whiteSpace=wrap;html=1;" vertex="1" parent="1">
          <mxGeometry x="40" y="-25" width="80" height="60" as="geometry" />
        </mxCell>
        <mxCell id="v8sRkHZ2H84feDXE_ec4-4" value="" style="edgeStyle=orthogonalEdgeStyle;rounded=0;orthogonalLoop=1;jettySize=auto;html=1;" edge="1" parent="1" source="v8sRkHZ2H84feDXE_ec4-20" target="v8sRkHZ2H84feDXE_ec4-10">
          <mxGeometry relative="1" as="geometry" />
        </mxCell>
        <mxCell id="v8sRkHZ2H84feDXE_ec4-5" style="edgeStyle=orthogonalEdgeStyle;rounded=0;orthogonalLoop=1;jettySize=auto;html=1;exitX=1;exitY=0.5;exitDx=0;exitDy=0;entryX=0;entryY=0.5;entryDx=0;entryDy=0;startArrow=classic;startFill=1;" edge="1" parent="1" source="v8sRkHZ2H84feDXE_ec4-8" target="v8sRkHZ2H84feDXE_ec4-19">
          <mxGeometry relative="1" as="geometry" />
        </mxCell>
        <mxCell id="v8sRkHZ2H84feDXE_ec4-6" style="edgeStyle=orthogonalEdgeStyle;rounded=0;orthogonalLoop=1;jettySize=auto;html=1;entryX=0;entryY=0.5;entryDx=0;entryDy=0;" edge="1" parent="1" source="v8sRkHZ2H84feDXE_ec4-8" target="v8sRkHZ2H84feDXE_ec4-15">
          <mxGeometry relative="1" as="geometry">
            <Array as="points">
              <mxPoint x="260" y="205" />
            </Array>
          </mxGeometry>
        </mxCell>
        <mxCell id="v8sRkHZ2H84feDXE_ec4-7" style="edgeStyle=orthogonalEdgeStyle;rounded=0;orthogonalLoop=1;jettySize=auto;html=1;entryX=0;entryY=0.5;entryDx=0;entryDy=0;" edge="1" parent="1" source="v8sRkHZ2H84feDXE_ec4-8" target="v8sRkHZ2H84feDXE_ec4-17">
          <mxGeometry relative="1" as="geometry">
            <Array as="points">
              <mxPoint x="260" y="5" />
            </Array>
          </mxGeometry>
        </mxCell>
        <mxCell id="v8sRkHZ2H84feDXE_ec4-8" value="Admin Page" style="whiteSpace=wrap;html=1;rounded=1;" vertex="1" parent="1">
          <mxGeometry x="200" y="75" width="80" height="60" as="geometry" />
        </mxCell>
        <mxCell id="v8sRkHZ2H84feDXE_ec4-9" value="" style="edgeStyle=orthogonalEdgeStyle;rounded=0;orthogonalLoop=1;jettySize=auto;html=1;" edge="1" parent="1" source="v8sRkHZ2H84feDXE_ec4-10" target="v8sRkHZ2H84feDXE_ec4-13">
          <mxGeometry relative="1" as="geometry" />
        </mxCell>
        <mxCell id="v8sRkHZ2H84feDXE_ec4-10" value="Shopping&amp;nbsp;&lt;div&gt;Cart&lt;/div&gt;" style="whiteSpace=wrap;html=1;rounded=1;" vertex="1" parent="1">
          <mxGeometry x="440" y="-130" width="80" height="60" as="geometry" />
        </mxCell>
        <mxCell id="v8sRkHZ2H84feDXE_ec4-11" value="" style="edgeStyle=orthogonalEdgeStyle;rounded=0;orthogonalLoop=1;jettySize=auto;html=1;" edge="1" parent="1" source="v8sRkHZ2H84feDXE_ec4-13" target="v8sRkHZ2H84feDXE_ec4-14">
          <mxGeometry relative="1" as="geometry" />
        </mxCell>
        <mxCell id="v8sRkHZ2H84feDXE_ec4-12" style="edgeStyle=orthogonalEdgeStyle;rounded=0;orthogonalLoop=1;jettySize=auto;html=1;entryX=1;entryY=0.5;entryDx=0;entryDy=0;" edge="1" parent="1" source="v8sRkHZ2H84feDXE_ec4-13" target="v8sRkHZ2H84feDXE_ec4-15">
          <mxGeometry relative="1" as="geometry">
            <Array as="points">
              <mxPoint x="600" y="205" />
            </Array>
          </mxGeometry>
        </mxCell>
        <mxCell id="v8sRkHZ2H84feDXE_ec4-13" value="Payment Process" style="whiteSpace=wrap;html=1;rounded=1;" vertex="1" parent="1">
          <mxGeometry x="560" y="-130" width="80" height="60" as="geometry" />
        </mxCell>
        <mxCell id="v8sRkHZ2H84feDXE_ec4-14" value="Rating" style="whiteSpace=wrap;html=1;rounded=1;" vertex="1" parent="1">
          <mxGeometry x="680" y="-130" width="80" height="60" as="geometry" />
        </mxCell>
        <mxCell id="v8sRkHZ2H84feDXE_ec4-15" value="Inventory Management" style="rounded=1;whiteSpace=wrap;html=1;" vertex="1" parent="1">
          <mxGeometry x="320" y="175" width="80" height="60" as="geometry" />
        </mxCell>
        <mxCell id="v8sRkHZ2H84feDXE_ec4-16" value="" style="edgeStyle=orthogonalEdgeStyle;rounded=0;orthogonalLoop=1;jettySize=auto;html=1;" edge="1" parent="1" source="v8sRkHZ2H84feDXE_ec4-17" target="v8sRkHZ2H84feDXE_ec4-20">
          <mxGeometry relative="1" as="geometry" />
        </mxCell>
        <mxCell id="v8sRkHZ2H84feDXE_ec4-17" value="Product Management" style="rounded=1;whiteSpace=wrap;html=1;" vertex="1" parent="1">
          <mxGeometry x="320" y="-25" width="80" height="60" as="geometry" />
        </mxCell>
        <mxCell id="v8sRkHZ2H84feDXE_ec4-18" value="" style="edgeStyle=orthogonalEdgeStyle;rounded=0;orthogonalLoop=1;jettySize=auto;html=1;endArrow=none;endFill=0;startArrow=classic;startFill=1;" edge="1" parent="1" source="v8sRkHZ2H84feDXE_ec4-19" target="v8sRkHZ2H84feDXE_ec4-10">
          <mxGeometry relative="1" as="geometry" />
        </mxCell>
        <mxCell id="v8sRkHZ2H84feDXE_ec4-19" value="Cart Management" style="rounded=1;whiteSpace=wrap;html=1;" vertex="1" parent="1">
          <mxGeometry x="320" y="75" width="80" height="60" as="geometry" />
        </mxCell>
        <mxCell id="v8sRkHZ2H84feDXE_ec4-20" value="Product Catalog" style="whiteSpace=wrap;html=1;rounded=1;" vertex="1" parent="1">
          <mxGeometry x="320" y="-130" width="80" height="60" as="geometry" />
        </mxCell>
      </root>
    </mxGraphModel>
  </diagram>
</mxfile>
